<svg version="1.1" id="Layer_1" xmlns="http://www.w3.org/2000/svg" xmlns:xlink="http://www.w3.org/1999/xlink" x="0px" y="0px"
	 width="100%" viewBox="0 0 1036 240" enable-background="new 0 0 1036 240" xml:space="preserve">
<path fill="#FFFFFF" opacity="1.000000" stroke="none" 
	d="
M755.000000,241.000000 
	C503.382507,241.000000 252.265030,241.000000 1.073768,241.000000 
	C1.073768,161.064896 1.073768,81.129715 1.073768,1.097264 
	C346.333313,1.097264 691.666626,1.097264 1036.972168,1.097264 
	C1036.972168,81.068352 1036.972168,161.034180 1036.972168,241.000000 
	C943.129639,241.000000 849.314819,241.000000 755.000000,241.000000 
M233.879288,69.642487 
	C233.760376,69.598549 233.641449,69.554604 233.522537,69.510658 
	C233.668991,69.684624 233.815460,69.858589 234.091156,70.528381 
	C234.371750,70.705376 234.652359,70.882362 235.089706,71.543465 
	C235.370514,71.715897 235.651337,71.888321 236.082703,72.552910 
	C236.365097,72.727852 236.647476,72.902802 237.081482,73.562057 
	C237.363739,73.729919 237.645981,73.897781 238.025162,74.449265 
	C238.219147,74.445435 238.413132,74.441605 238.607117,74.437775 
	C238.419693,74.274620 238.232285,74.111473 237.880081,73.477066 
	C237.607544,73.299629 237.335007,73.122192 236.883606,72.471443 
	C236.605011,72.295792 236.326431,72.120140 235.870514,71.476913 
	C235.595917,71.299736 235.321320,71.122559 234.861099,70.480263 
	C234.581573,70.310806 234.302048,70.141350 233.879288,69.642487 
M225.924042,118.558655 
	C225.722260,118.579201 225.520493,118.599747 225.318710,118.620293 
	C225.525986,118.764015 225.733246,118.907730 226.213898,119.507935 
	C226.591782,119.538246 226.969666,119.568558 227.347549,119.598869 
	C226.919479,119.374832 226.491409,119.150803 225.924042,118.558655 
M128.424149,178.766006 
	C128.409348,178.409195 128.394547,178.052399 128.379730,177.695587 
	C128.243744,178.123199 128.107742,178.550827 127.703278,179.104828 
	C127.809059,179.078781 127.914841,179.052734 128.424149,178.766006 
M145.892761,94.718117 
	C145.806137,94.669296 145.719498,94.620483 145.632874,94.571663 
	C145.753296,94.715965 145.873734,94.860260 146.067078,95.573341 
	C146.373627,95.895248 146.680191,96.217163 146.986740,96.539070 
	C147.168976,96.329033 147.351196,96.118996 147.533432,95.908958 
	C147.023788,95.604027 146.514145,95.299103 145.892761,94.718117 
M146.619217,165.758484 
	C146.990692,165.037979 147.362183,164.317474 147.733673,163.596985 
	C147.431030,163.472839 147.128372,163.348709 146.825729,163.224579 
	C146.524384,164.121994 146.223022,165.019394 145.367188,165.962112 
	C144.957718,166.310959 144.548233,166.659790 143.425888,167.064575 
	C141.925568,168.656479 140.425262,170.248383 138.924942,171.840286 
	C139.391907,172.228790 139.858871,172.617294 140.325836,173.005814 
	C141.593048,171.251129 142.860260,169.496445 144.713364,167.749161 
	C145.160843,167.184982 145.608322,166.620819 146.619217,165.758484 
M237.955093,129.486862 
	C237.757080,129.510574 237.559067,129.534302 237.361053,129.558014 
	C237.529007,129.744827 237.696960,129.931656 237.976334,130.736221 
	C238.611557,131.534912 239.246796,132.333603 240.074265,133.495163 
	C240.278778,133.475189 240.483276,133.455215 240.687790,133.435257 
	C240.515015,133.239182 240.342255,133.043091 240.115326,132.178650 
	C239.466537,131.390182 238.817749,130.601730 237.955093,129.486862 
M150.996552,37.003853 
	C150.996552,37.003853 151.030289,36.971825 150.182037,36.967762 
	C144.113708,36.873970 137.827103,35.709431 132.019287,36.893456 
	C116.542244,40.048740 105.040749,49.581116 95.252907,62.395233 
	C94.832291,63.594021 94.411682,64.792809 93.351418,66.084251 
	C92.753792,66.865318 92.156174,67.646385 91.558548,68.427460 
	C92.056061,68.646286 92.553566,68.865120 93.051079,69.083946 
	C93.370377,68.058952 93.689667,67.033951 94.697754,65.931206 
	C95.466934,64.717560 96.236122,63.503918 97.643333,62.010735 
	C98.279617,61.502941 98.985275,61.061298 99.541908,60.477551 
	C110.021812,49.487297 122.251465,42.063221 137.955917,42.337578 
	C138.377823,43.100994 138.799744,43.864410 139.221664,44.627827 
	C139.813766,43.754822 140.405884,42.881821 141.824478,42.019993 
	C144.840988,42.538227 147.842270,43.190754 150.878510,43.534832 
	C153.611908,43.844597 154.559860,42.712540 152.969971,39.459198 
	C152.634216,38.635365 152.298462,37.811531 151.828476,36.594978 
	C151.539169,36.741035 151.249878,36.887089 150.996552,37.003853 
M196.524887,182.568192 
	C196.524887,181.525803 196.524887,180.483398 196.524887,179.441010 
	C196.054108,179.497543 195.583328,179.554077 195.112549,179.610611 
	C195.406937,180.739105 195.701324,181.867599 195.332001,183.099121 
	C195.031601,183.794449 194.731186,184.489761 194.430786,185.185089 
	C194.795242,185.312332 195.159698,185.439590 195.524155,185.566833 
	C195.684189,184.712646 195.844223,183.858459 196.524887,182.568192 
M137.198975,48.656590 
	C137.963821,48.410656 138.728668,48.164719 139.493515,47.918785 
	C138.941406,47.420242 138.389282,46.921700 137.837173,46.423157 
	C137.224213,47.302704 136.611252,48.182251 135.492096,49.472980 
	C134.952271,50.709621 134.412445,51.946262 133.872620,53.182903 
	C134.234619,53.342598 134.596603,53.502296 134.958603,53.661995 
	C135.601624,52.167023 136.244629,50.672054 137.198975,48.656590 
M236.045837,127.534981 
	C236.254852,127.506195 236.463852,127.477409 236.672867,127.448624 
	C236.500778,127.252548 236.328674,127.056465 235.994675,126.223824 
	C234.942337,125.010757 233.889984,123.797691 232.837646,122.584625 
	C232.473938,122.987778 232.110214,123.390938 231.746506,123.794098 
	C233.104111,124.928734 234.461731,126.063370 236.045837,127.534981 
M248.470718,93.281509 
	C250.722733,102.621872 253.195282,112.098099 250.946960,121.646126 
	C249.433990,128.071335 246.339828,134.124222 243.730652,139.629868 
	C243.124695,138.219330 242.518753,136.808792 241.912796,135.398254 
	C241.664307,135.473709 241.415833,135.549149 241.167343,135.624588 
	C241.514526,137.766663 241.861710,139.908737 241.986084,142.718369 
	C240.224152,145.154984 238.462219,147.591599 235.989258,151.011520 
	C239.171600,151.011520 241.077301,151.011520 242.904648,151.790771 
	C241.082779,162.327026 236.527206,171.610275 229.439362,180.358368 
	C222.316498,187.953613 214.069107,193.749222 204.300369,197.669418 
	C194.364380,201.656754 184.403961,199.122192 174.282669,197.984497 
	C175.207520,200.966202 175.823349,202.951630 175.914978,205.070267 
	C175.856171,205.269058 175.797379,205.467865 175.738571,205.666656 
	C176.068756,205.395996 176.398956,205.125320 177.629303,204.897110 
	C180.572510,205.234085 183.523315,205.916580 186.457687,205.852020 
	C205.646622,205.429810 219.787994,195.782700 231.662430,180.732590 
	C238.305267,171.859879 243.671997,162.462067 244.183411,150.331573 
	C246.479446,146.885986 249.377151,143.695755 250.966797,139.950348 
	C257.645081,124.215271 256.341705,108.483528 249.930099,92.345490 
	C249.319138,91.885696 248.708176,91.425911 248.097229,90.966118 
	C247.982742,91.108208 247.868271,91.250290 247.753799,91.392380 
	C248.139969,91.844360 248.526154,92.296333 248.470718,93.281509 
M220.223373,61.099651 
	C213.974762,60.010216 207.756790,59.267601 202.329468,62.078815 
	C208.312912,62.362228 214.667023,62.663200 221.615509,63.360672 
	C223.114227,66.588623 224.612946,69.816566 226.393097,73.650665 
	C230.774933,67.293388 228.979828,62.332436 225.981979,57.769260 
	C216.682892,43.614567 203.001846,36.219162 186.739243,33.057438 
	C184.768753,32.674343 182.710526,32.742615 180.692963,32.601692 
	C181.452972,33.944294 182.243240,34.169128 183.039673,34.369488 
	C184.002472,34.611702 184.982147,34.793045 185.934509,35.069630 
	C200.890884,39.413250 213.856003,46.445328 220.223373,61.099651 
M150.136200,208.037109 
	C131.876328,205.201859 116.686554,197.473251 106.991127,180.451660 
	C106.985176,180.277863 106.979225,180.104050 106.719101,179.252426 
	C105.263855,175.608200 103.808609,171.963989 102.353363,168.319763 
	C101.815178,168.399475 101.276993,168.479202 100.738800,168.558914 
	C100.059471,171.127518 98.095261,174.277893 98.944817,176.154266 
	C101.369591,181.509766 104.192123,187.060699 108.199120,191.253128 
	C119.741455,203.329697 134.343979,209.022827 151.690521,209.779495 
	C159.089569,210.409546 166.306091,209.954987 173.414261,206.735138 
	C165.637772,207.212891 158.290497,207.664276 150.136200,208.037109 
M86.000801,90.107254 
	C85.845955,88.868301 85.691101,87.629349 85.536255,86.390396 
	C85.098412,86.453819 84.660568,86.517250 84.222725,86.580673 
	C84.479851,88.009087 84.736984,89.437492 84.392204,91.188644 
	C67.519981,107.031204 71.897240,141.325043 81.405365,153.414658 
	C75.626610,135.195724 73.865875,118.252419 83.561981,101.090813 
	C84.734772,102.806252 85.314651,103.654442 85.105797,103.348946 
	C87.161369,99.288101 89.373039,94.918892 91.894714,89.937263 
	C89.515091,90.310555 87.758324,90.586143 86.000801,90.107254 
M185.664246,126.128922 
	C187.404083,128.296478 189.131683,130.473999 190.885818,132.629929 
	C199.418884,143.117554 208.895416,152.278976 222.765594,155.245209 
	C225.381470,155.804626 228.407455,156.895630 228.975922,152.829773 
	C229.453247,149.415756 227.020859,148.740921 224.119431,147.893036 
	C218.141998,146.146240 211.964081,144.388687 206.617615,141.327499 
	C196.122116,135.318161 189.310989,125.601883 183.697037,115.149536 
	C182.004578,111.998436 181.327286,108.302094 180.093704,104.580177 
	C185.137985,103.907623 188.954391,103.626396 192.671158,102.861122 
	C204.446152,100.436653 215.356720,96.195366 223.510162,86.822075 
	C225.060608,85.039673 227.335312,82.833191 224.435150,80.448982 
	C221.724640,78.220673 219.771820,79.550980 217.888733,82.143204 
	C208.958176,94.436996 195.905502,98.649025 181.598160,100.335571 
	C178.972702,100.645065 177.870529,99.569969 177.976990,96.137268 
	C178.301163,91.311920 178.625336,86.486580 178.949509,81.661232 
	C177.028137,86.634331 174.566711,91.522293 176.916061,97.849655 
	C176.237122,98.912285 175.532867,100.908463 174.883224,100.890854 
	C169.347122,100.740738 163.820969,100.224838 158.135025,99.806969 
	C160.780426,91.810310 163.418411,84.856453 165.357452,77.712883 
	C167.711929,69.038864 167.901413,60.223892 164.085617,51.840973 
	C163.385788,50.303490 161.079987,49.497025 159.515488,48.353130 
	C158.824814,50.460815 156.948669,53.113785 157.628250,54.591187 
	C163.896866,68.219360 160.554596,81.298470 155.829422,94.283600 
	C155.150131,96.150307 152.908447,97.448479 151.974838,98.408302 
	C152.657715,106.830818 145.094498,109.465988 141.932434,114.295189 
	C137.125305,108.891548 132.782303,103.390160 127.793419,98.555229 
	C121.253128,92.216789 113.553535,87.589012 104.342224,86.160767 
	C102.079582,85.809921 98.894867,85.675461 99.265968,89.011505 
	C99.459549,90.751678 101.821114,92.588226 103.624290,93.696548 
	C104.887062,94.472710 106.909973,93.884300 108.511063,94.258064 
	C121.438911,97.275963 130.079773,106.208969 138.037964,115.984886 
	C138.884476,117.024750 138.566452,119.271286 139.508469,119.932457 
	C145.346771,124.030144 145.962540,130.541626 148.360367,136.577560 
	C141.702377,137.825623 135.613525,138.639511 129.702026,140.148285 
	C119.669891,142.708786 110.654655,147.296295 104.183434,155.684769 
	C103.257225,156.885376 103.945709,159.331635 103.886909,161.201401 
	C105.897743,160.809998 108.926788,161.124344 109.762589,159.918488 
	C118.540817,147.253662 131.904510,143.621521 145.844452,141.130005 
	C147.126389,140.900894 148.698090,142.293060 150.043274,143.868393 
	C150.043274,147.929337 150.043274,151.990280 150.043274,156.051224 
	C150.430542,156.061386 150.817810,156.071548 151.205078,156.081711 
	C151.205078,151.729416 151.205078,147.377136 151.197784,142.253723 
	C151.909927,141.548065 152.679382,140.183929 153.325211,140.240143 
	C158.851517,140.721146 164.355408,141.459473 170.243530,142.166138 
	C167.944016,148.344559 165.524796,153.796204 163.887466,159.473343 
	C160.946960,169.669022 159.629868,180.039825 164.284042,190.121170 
	C164.955048,191.574615 167.721344,193.363663 168.917206,193.003357 
	C171.486908,192.229126 172.363785,190.000549 170.994324,186.996078 
	C169.571991,183.875626 168.346741,180.493454 167.930603,177.115433 
	C165.909744,160.710266 171.155975,146.227615 180.289261,132.881912 
	C181.864563,130.580032 183.444611,128.281418 184.998489,125.997841 
	C184.998489,125.997841 184.982269,126.021896 185.664246,126.128922 
M531.042358,145.474792 
	C533.011475,148.558151 534.895752,151.701111 536.997742,154.691010 
	C537.688293,155.673279 538.903076,156.850204 539.946716,156.920609 
	C543.851746,157.183990 547.785217,157.025986 551.760864,157.025986 
	C551.760864,132.407425 551.760864,108.534012 551.760864,84.579048 
	C547.699524,84.579048 544.008728,84.579048 539.723145,84.579048 
	C539.723145,102.472000 539.723145,119.917664 539.723145,138.586670 
	C537.939758,135.951248 536.899536,134.463135 535.908936,132.942642 
	C526.104126,117.893181 516.346741,102.812431 506.448273,87.824898 
	C505.452515,86.317139 503.738342,84.557541 502.146515,84.318085 
	C498.627106,83.788643 494.973175,84.153389 491.234924,84.153389 
	C491.234924,108.745903 491.234924,132.626144 491.234924,156.634125 
	C495.250488,156.634125 498.937561,156.634125 502.963654,156.634125 
	C502.963654,147.400421 502.963654,138.595917 502.963654,129.791428 
	C502.963654,121.096024 502.963654,112.400627 502.963654,103.705223 
	C503.312469,103.632668 503.661285,103.560112 504.010071,103.487556 
	C512.884033,117.285240 521.757996,131.082932 531.042358,145.474792 
M687.728333,104.728836 
	C686.872986,102.386246 686.060059,100.027130 685.155151,97.703819 
	C680.165405,84.892357 680.157959,84.999893 666.510559,85.035645 
	C663.285950,85.044083 661.923340,86.149162 660.847595,89.159645 
	C655.141479,105.128059 649.145020,120.992485 643.301758,136.912262 
	C641.050598,143.045471 638.938538,149.229752 636.720215,155.512115 
	C638.022095,155.820892 638.496338,156.010757 638.979370,156.036636 
	C651.056091,156.683594 651.130554,156.707306 655.225952,145.345810 
	C656.156433,142.764374 657.368835,141.643188 660.229248,141.780655 
	C665.214722,142.020248 670.220032,141.846878 675.217041,141.846848 
	C686.243713,141.846771 686.181946,141.870148 690.044312,152.105164 
	C690.607056,153.596451 691.975403,155.735596 693.161316,155.867783 
	C697.316711,156.330978 701.555359,156.047394 706.605286,156.047394 
	C700.126465,138.479095 694.041077,121.977470 687.728333,104.728836 
M920.046753,131.586929 
	C918.706848,132.056549 917.046570,132.183655 916.097778,133.071320 
	C914.426392,134.634857 913.440918,136.951370 911.726440,138.445572 
	C904.936584,144.362808 893.111572,145.034790 885.554932,140.156647 
	C877.405334,134.895706 873.958984,123.893333 877.064392,113.050415 
	C879.640259,104.056335 887.139893,98.271187 896.580688,98.002960 
	C906.227600,97.728882 913.106506,102.094513 917.303040,110.821373 
	C920.415161,109.737953 923.222534,108.779160 926.016907,107.783783 
	C930.981384,106.015373 931.326599,105.246918 928.401367,100.744514 
	C919.751404,87.430527 907.266418,82.984428 891.891113,84.875282 
	C878.662476,86.502151 869.041931,93.124130 864.167603,105.442841 
	C858.804565,118.996841 859.785339,132.442352 868.951050,144.149719 
	C878.623230,156.504028 892.079956,159.012207 906.747803,156.072769 
	C918.311951,153.755295 926.247559,146.783051 930.919434,135.574600 
	C927.287292,134.246414 924.024353,133.053238 920.046753,131.586929 
M763.625549,124.978249 
	C758.765503,121.961716 754.108582,118.525436 748.987915,116.047531 
	C743.937439,113.603561 738.237915,112.498512 733.195129,110.042313 
	C731.270813,109.105064 729.022034,105.798515 729.347839,104.015030 
	C729.795288,101.565628 732.104858,98.541389 734.399597,97.516533 
	C741.209900,94.474930 748.019897,97.333458 751.868835,103.751724 
	C752.468994,104.752541 754.081055,105.972473 755.001465,105.811577 
	C758.877075,105.134048 762.667847,103.971321 768.018250,102.592117 
	C764.837708,98.133369 762.868225,93.703659 759.512512,90.985107 
	C749.969177,83.254021 738.884399,82.344223 727.530273,86.336212 
	C718.486572,89.515884 714.080383,95.914276 714.004944,104.660332 
	C713.932556,113.042046 717.895691,118.444046 727.044922,122.088974 
	C731.053955,123.686119 735.210083,124.910667 739.249390,126.436676 
	C742.348572,127.607521 745.614868,128.599945 748.371887,130.354996 
	C753.497498,133.617874 753.095032,140.501495 747.886780,143.560837 
	C741.412354,147.363922 731.401306,144.311005 728.124817,137.513321 
	C727.434937,136.082169 726.843750,134.603455 726.222107,133.180954 
	C722.586853,133.945526 719.370605,134.794571 716.100037,135.268433 
	C711.468994,135.939407 711.369324,138.352936 713.000061,141.928879 
	C715.534912,147.487274 719.512329,151.556564 725.078613,153.979141 
	C733.970032,157.848892 743.211243,158.329453 752.369141,155.462509 
	C765.988159,151.198975 771.072998,137.792007 763.625549,124.978249 
M445.953278,131.634155 
	C446.044891,129.883026 446.136536,128.131897 446.255127,125.865341 
	C454.723907,125.865341 462.632416,125.865341 470.599640,125.865341 
	C470.599640,122.079254 470.599640,118.851921 470.599640,115.065559 
	C462.340698,115.065559 454.434357,115.065559 446.390717,115.065559 
	C446.390717,108.135742 446.390717,101.784027 446.390717,94.920059 
	C455.736877,94.920059 464.652313,94.920059 473.738098,94.920059 
	C473.738098,91.160843 473.738098,87.928101 473.738098,84.426590 
	C460.203583,84.426590 446.985687,84.426590 433.630981,84.426590 
	C433.630981,108.743309 433.630981,132.742172 433.630981,156.630753 
	C447.320404,156.630753 460.540405,156.630753 473.650208,156.630753 
	C473.650208,152.947266 473.650208,149.710419 473.650208,145.964478 
	C464.341614,145.964478 455.424652,145.964478 445.953125,145.964478 
	C445.953125,141.169067 445.953125,136.882889 445.953278,131.634155 
M319.504883,157.066452 
	C328.104767,157.066452 336.704651,157.066452 345.492676,157.066452 
	C345.492676,153.112228 345.492676,149.878555 345.492676,145.983231 
	C335.966125,145.983231 326.748444,145.983231 317.086273,145.983231 
	C317.086273,140.692566 317.313751,136.044708 317.018097,131.430374 
	C316.756653,127.350151 318.062866,125.774712 322.318939,125.984261 
	C328.740143,126.300415 335.188416,126.066719 341.738464,126.066719 
	C341.738464,122.125069 341.738464,118.899467 341.738464,115.091515 
	C333.486603,115.091515 325.578156,115.091515 317.086151,115.091515 
	C317.086151,110.063873 317.389099,105.583382 317.004517,101.162689 
	C316.585175,96.342308 318.232208,94.724136 323.115631,94.983437 
	C330.518066,95.376503 337.956757,95.086151 345.445038,95.086151 
	C345.445038,91.043030 345.445038,87.815468 345.445038,84.493042 
	C331.843933,84.493042 318.618805,84.493042 305.290009,84.493042 
	C305.290009,108.766434 305.290009,132.664413 305.290009,157.066574 
	C309.916687,157.066574 314.212494,157.066574 319.504883,157.066452 
M407.363068,120.927841 
	C411.802032,108.849159 416.241028,96.770477 420.889893,84.120735 
	C418.083527,84.120735 416.068726,84.365005 414.134766,84.073288 
	C409.064636,83.308525 406.866486,85.527534 405.386230,90.346733 
	C401.972260,101.461700 397.894287,112.373528 394.048523,123.354752 
	C392.023468,129.137024 389.920380,134.891968 387.496490,141.652283 
	C386.386597,138.906326 385.582001,137.123032 384.935699,135.284119 
	C379.424377,119.602852 373.996002,103.891975 368.367615,88.252983 
	C367.797180,86.667984 366.235565,84.561852 364.852295,84.322067 
	C361.528687,83.745934 358.037689,84.135605 354.655914,84.135605 
	C354.603516,85.094238 354.482513,85.451370 354.583374,85.727448 
	C362.968109,108.676949 371.336243,131.632767 379.872101,154.526047 
	C380.292664,155.654083 382.091675,156.674255 383.418396,156.961548 
	C385.327423,157.374969 387.413300,156.885025 389.385742,157.111404 
	C392.701721,157.492004 394.418732,156.349136 395.567413,153.017441 
	C399.196228,142.492203 403.221588,132.103683 407.363068,120.927841 
M790.217285,153.165649 
	C791.048096,154.128372 791.819275,155.851639 792.720093,155.922256 
	C796.632019,156.228973 800.581726,156.053818 805.192749,156.053818 
	C805.192749,136.432037 805.192749,117.431702 805.192749,97.883057 
	C811.111816,97.883057 816.341431,97.883057 821.629883,97.883057 
	C821.629883,93.414322 821.629883,89.519005 821.629883,85.139381 
	C806.196533,85.139381 791.101379,85.089645 776.008850,85.260948 
	C775.087402,85.271408 773.510376,86.960594 773.400513,87.992393 
	C773.058289,91.207199 773.275024,94.481529 773.275024,98.314682 
	C779.324402,98.314682 784.563782,98.314682 790.210327,98.314682 
	C790.210327,116.681442 790.210327,134.454956 790.217285,153.165649 
M583.076050,154.214798 
	C583.749390,155.149155 584.358765,156.825943 585.106995,156.890366 
	C588.493042,157.181915 591.918335,157.017853 595.924072,157.017853 
	C595.924072,136.010529 595.924072,115.796532 595.924072,94.974442 
	C602.093689,94.974442 607.656433,94.974442 613.399048,94.974442 
	C613.538452,93.070038 613.697815,91.771400 613.717773,90.470619 
	C613.815002,84.132698 613.801819,84.127571 607.458313,84.122086 
	C600.630554,84.116180 593.802856,84.120743 586.975098,84.120735 
	C579.863586,84.120735 572.752075,84.120735 565.505005,84.120735 
	C565.505005,88.094521 565.505005,91.441498 565.505005,95.331970 
	C571.532288,95.331970 577.115234,95.331970 583.068909,95.331970 
	C583.068909,115.008667 583.068909,134.137939 583.076050,154.214798 
M847.920776,152.266907 
	C847.920776,130.032669 847.920776,107.798431 847.920776,85.467979 
	C842.593018,85.467979 838.031433,85.467979 833.289124,85.467979 
	C833.289124,109.042480 833.289124,132.260696 833.289124,156.053757 
	C837.509338,156.053757 841.469299,156.226395 845.392639,155.924194 
	C846.297302,155.854523 847.076660,154.157684 847.920776,152.266907 
M213.905899,113.245216 
	C209.179047,113.595917 204.452194,113.946625 199.725342,114.297333 
	C199.783829,114.523453 199.842300,114.749573 199.900772,114.975685 
	C207.062378,115.313950 214.223984,115.652214 221.385605,115.990479 
	C221.450592,115.869125 221.515579,115.747772 221.580566,115.626411 
	C219.292114,114.912537 217.003662,114.198654 213.905899,113.245216 
M130.968033,69.061890 
	C131.080078,70.033051 131.192139,71.004219 131.422485,73.000656 
	C132.306992,66.542511 133.039474,61.194317 133.771957,55.846127 
	C133.282181,55.790756 132.792404,55.735390 132.302628,55.680019 
	C131.856140,59.852722 131.409668,64.025421 130.968033,69.061890 
M89.332932,167.437088 
	C91.150543,169.311142 92.968163,171.185181 94.785782,173.059235 
	C95.258591,172.476974 95.731400,171.894714 96.204208,171.312469 
	C93.919899,169.805481 91.635590,168.298508 89.332932,167.437088 
M154.339417,34.425583 
	C154.167023,34.691456 153.970612,34.945877 153.835312,35.229454 
	C153.788147,35.328300 153.906189,35.621864 153.924667,35.619705 
	C155.997025,35.378052 158.067108,35.116795 160.137314,34.856636 
	C160.051575,34.407059 159.965836,33.957481 159.880096,33.507908 
	C158.234695,33.715603 156.589310,33.923298 154.339417,34.425583 
M244.580566,84.554688 
	C245.010696,85.567535 245.440826,86.580383 245.870941,87.593231 
	C246.301682,87.164848 246.732422,86.736473 247.163162,86.308090 
	C246.154633,85.577568 245.146103,84.847046 244.580566,84.554688 
M110.401947,179.400238 
	C111.216957,179.908218 112.031967,180.416183 112.846985,180.924149 
	C113.078255,180.464615 113.309532,180.005066 113.540810,179.545532 
	C112.699120,179.408951 111.857437,179.272385 110.401947,179.400238 
M192.351166,192.567017 
	C192.804947,191.624802 193.258743,190.682587 193.712524,189.740372 
	C193.219299,189.612915 192.726089,189.485458 192.232864,189.358017 
	C192.072906,190.434280 191.912949,191.510559 192.351166,192.567017 
M241.285019,78.772339 
	C240.992905,77.877388 240.700790,76.982430 240.408691,76.087479 
	C240.011169,76.259193 239.613647,76.430916 239.216125,76.602631 
	C239.694458,77.302422 240.172791,78.002205 241.285019,78.772339 
M138.334106,91.377899 
	C138.929520,91.779587 139.524933,92.181274 140.120346,92.582970 
	C140.261597,92.192787 140.402847,91.802605 140.544113,91.412430 
	C139.818375,91.198242 139.092621,90.984055 138.334106,91.377899 
M149.515778,158.557938 
	C149.001831,159.404831 148.487885,160.251709 147.973938,161.098602 
	C148.309601,161.250671 148.645248,161.402725 148.980911,161.554794 
	C149.282166,160.718079 149.583435,159.881378 149.515778,158.557938 
M111.470985,126.684998 
	C112.019630,127.024643 112.568283,127.364288 113.116936,127.703934 
	C113.252136,127.428886 113.387337,127.153839 113.522537,126.878784 
	C112.985268,126.673172 112.448006,126.467552 111.470985,126.684998 
M196.726135,166.119446 
	C196.533478,165.574692 196.340820,165.029938 196.148163,164.485184 
	C195.868835,164.612823 195.589493,164.740479 195.310165,164.868134 
	C195.636795,165.428848 195.963440,165.989578 196.726135,166.119446 
M96.760941,118.374680 
	C96.889565,118.858971 97.018188,119.343254 97.146812,119.827553 
	C97.527061,119.654495 97.907310,119.481438 98.287552,119.308380 
	C97.963188,118.974037 97.638824,118.639694 96.760941,118.374680 
M131.785324,79.027794 
	C132.330780,79.144356 132.876221,79.260918 133.421677,79.377480 
	C133.416840,79.088318 133.436340,78.550232 133.403534,78.547020 
	C132.837219,78.491661 132.264481,78.502182 131.785324,79.027794 
M198.874207,64.356476 
	C198.978287,63.984539 199.082382,63.612602 199.186462,63.240662 
	C198.629532,63.412521 198.072617,63.584385 197.515686,63.756248 
	C197.802109,64.036049 198.088516,64.315857 198.874207,64.356476 
M86.430069,162.703461 
	C86.703346,162.989716 86.976624,163.275970 87.249908,163.562210 
	C87.368431,163.448898 87.596207,163.243286 87.589706,163.235580 
	C87.334625,162.933655 87.058220,162.649750 86.430069,162.703461 
M83.937332,159.832214 
	C84.391182,160.009140 84.845039,160.186050 85.298897,160.362976 
	C85.377945,160.084885 85.456993,159.806778 85.536034,159.528702 
	C84.948311,159.478073 84.360588,159.427444 83.937332,159.832214 
M182.796478,74.390068 
	C182.792313,74.785393 182.788162,75.180710 182.783997,75.576027 
	C182.948044,75.577538 183.254654,75.590027 183.255493,75.578972 
	C183.285782,75.185669 183.287430,74.790146 182.796478,74.390068 
M184.797134,147.389694 
	C184.792953,147.785019 184.788773,148.180328 184.784576,148.575653 
	C184.948624,148.577164 185.255234,148.589676 185.256088,148.578613 
	C185.286407,148.185226 185.288101,147.789658 184.797134,147.389694 
M190.570282,195.296982 
	C190.296844,195.010574 190.023422,194.724167 189.749985,194.437759 
	C189.631439,194.551117 189.403625,194.756805 189.410110,194.764526 
	C189.665329,195.066620 189.941879,195.350677 190.570282,195.296982 
M192.768784,119.531273 
	C193.078690,119.301735 193.388580,119.072189 193.698486,118.842659 
	C193.521072,118.664688 193.343674,118.486717 193.166275,118.308739 
	C192.918289,118.596054 192.670319,118.883362 192.768784,119.531273 
M181.796921,145.389450 
	C181.792755,145.784973 181.788589,146.180481 181.784424,146.576004 
	C181.948563,146.577545 182.255371,146.590042 182.256226,146.579010 
	C182.286514,146.185410 182.288193,145.789612 181.796921,145.389450 
M131.703003,75.569962 
	C131.989456,75.296478 132.275925,75.022995 132.562393,74.749519 
	C132.449005,74.630959 132.243286,74.403076 132.235565,74.409592 
	C131.933411,74.664848 131.649323,74.941444 131.703003,75.569962 
M88.569496,77.296768 
	C88.296143,77.010376 88.022797,76.723984 87.749443,76.437592 
	C87.630920,76.550972 87.403084,76.756676 87.409622,76.764412 
	C87.664757,77.066475 87.941254,77.350502 88.569496,77.296768 
M242.665283,80.226387 
	C242.633667,80.603203 242.602066,80.980019 242.570450,81.356834 
	C242.833710,81.373238 243.096970,81.389648 243.360245,81.406059 
	C243.303284,81.034492 243.246323,80.662918 242.665283,80.226387 
M86.202812,83.610382 
	C86.207008,83.214760 86.211212,82.819138 86.215416,82.423515 
	C86.051247,82.422028 85.744408,82.409531 85.743546,82.420639 
	C85.713188,82.814308 85.711502,83.210190 86.202812,83.610382 
M185.431183,72.703407 
	C185.704117,72.989349 185.977051,73.275299 186.249985,73.561249 
	C186.368317,73.448059 186.595749,73.242714 186.589218,73.234978 
	C186.334503,72.933395 186.058472,72.649818 185.431183,72.703407 
M87.202919,107.609535 
	C87.207146,107.214386 87.211365,106.819237 87.215584,106.424088 
	C87.051613,106.422630 86.745132,106.410164 86.744270,106.421310 
	C86.713898,106.814468 86.712212,107.209846 87.202919,107.609535 
M88.430847,109.703537 
	C88.704124,109.989883 88.977402,110.276230 89.250687,110.562584 
	C89.369202,110.449211 89.597031,110.243523 89.590477,110.235771 
	C89.335419,109.933739 89.058975,109.649773 88.430847,109.703537 
M191.352066,154.668884 
	C191.471039,154.421432 191.590012,154.173996 191.708984,153.926575 
	C191.471695,153.854813 191.234421,153.783066 190.997162,153.711304 
	C190.971207,154.051880 190.945251,154.392471 191.352066,154.668884 
M86.647728,79.330589 
	C86.528664,79.578278 86.409599,79.825966 86.290535,80.073654 
	C86.528030,80.145485 86.765526,80.217323 87.003021,80.289154 
	C87.028984,79.948265 87.054947,79.607368 86.647728,79.330589 
M133.715439,81.997147 
	C133.789398,82.230698 133.863342,82.464241 133.937302,82.697792 
	C134.197449,82.434471 134.457611,82.171143 134.717758,81.907822 
	C134.483948,81.835709 134.250153,81.763596 133.715439,81.997147 
M189.389755,69.471001 
	C189.121201,69.181580 188.852646,68.892151 188.584091,68.602730 
	C188.481644,68.706184 188.281509,68.889709 188.291077,68.901382 
	C188.530136,69.193085 188.791290,69.466682 189.389755,69.471001 
M191.626816,67.656944 
	C191.881393,67.582108 192.135986,67.507271 192.390564,67.432442 
	C192.114273,67.149780 191.837982,66.867119 191.561707,66.584457 
	C191.480606,66.837181 191.399521,67.089912 191.626816,67.656944 
M135.078705,122.520149 
	C135.223862,122.764175 135.369034,123.008202 135.514191,123.252228 
	C135.648666,123.000610 135.944427,122.685005 135.876480,122.513680 
	C135.792831,122.302811 135.405960,122.212227 135.078705,122.520149 
M109.045158,125.686203 
	C108.901726,125.923698 108.758301,126.161194 108.614861,126.398682 
	C108.859581,126.486305 109.104301,126.573929 109.349022,126.661560 
	C109.390106,126.309113 109.431183,125.956665 109.045158,125.686203 
M101.657150,122.373260 
	C101.582275,122.118576 101.507408,121.863884 101.432541,121.609200 
	C101.149773,121.885597 100.867012,122.161995 100.584251,122.438393 
	C100.837082,122.519516 101.089920,122.600647 101.657150,122.373260 
M124.261223,126.815010 
	C124.375977,126.972984 124.490730,127.130959 124.605484,127.288933 
	C124.582245,127.069160 124.558998,126.849388 124.261223,126.815010 
M91.372055,113.524902 
	C91.159859,113.470421 90.947670,113.415939 90.735474,113.361450 
	C90.871834,113.495377 91.008194,113.629303 91.372055,113.524902 
M177.627319,144.475082 
	C177.839920,144.529663 178.052505,144.584229 178.265091,144.638809 
	C178.128464,144.504623 177.991837,144.370422 177.627319,144.475082 
M130.244583,125.175507 
	C130.411850,125.120033 130.579102,125.064560 130.746353,125.009079 
	C130.578079,124.955017 130.409805,124.900963 130.244583,125.175507 
M132.739227,124.185158 
	C132.624390,124.027100 132.509567,123.869034 132.394730,123.710976 
	C132.418015,123.930878 132.441284,124.150772 132.739227,124.185158 
M180.738876,78.184998 
	C180.624176,78.027077 180.509460,77.869156 180.394760,77.711235 
	C180.417984,77.930946 180.441223,78.150665 180.738876,78.184998 
M120.244713,180.175232 
	C120.411766,180.119827 120.578812,180.064423 120.745865,180.009018 
	C120.577774,179.955017 120.409691,179.901001 120.244713,180.175232 
M137.411346,174.482834 
	C137.411346,174.482834 137.522964,174.416046 137.411346,174.482834 
M189.411331,120.483017 
	C189.411331,120.483017 189.523148,120.416054 189.411331,120.483017 
M195.283981,117.477524 
	C195.283981,117.477524 195.595245,117.614510 195.595245,117.614510 
	C195.595245,117.614510 195.524414,117.315971 195.283981,117.477524 
M134.517365,84.411568 
	C134.517365,84.411568 134.584122,84.523094 134.517365,84.411568 
M197.296509,116.474724 
	C197.296509,116.474724 197.598618,116.607498 197.598618,116.607498 
	C197.598618,116.607498 197.530670,116.324402 197.296509,116.474724 
M136.588791,85.517250 
	C136.588791,85.517250 136.476868,85.584229 136.588791,85.517250 
M192.482925,157.588898 
	C192.482925,157.588898 192.415802,157.476868 192.482925,157.588898 
M223.279297,117.474739 
	C223.279297,117.474739 223.591049,117.609177 223.591049,117.609177 
	C223.591049,117.609177 223.518890,117.316261 223.279297,117.474739 
M231.557404,68.319870 
	C231.557404,68.319870 231.440063,68.554787 231.440063,68.554787 
	C231.440063,68.554787 231.708405,68.506187 231.557404,68.319870 
z"/>
<path fill="#A899D6" opacity="1.000000" stroke="none" 
	d="
M530.837158,145.177704 
	C521.757996,131.082932 512.884033,117.285240 504.010071,103.487556 
	C503.661285,103.560112 503.312469,103.632668 502.963654,103.705223 
	C502.963654,112.400627 502.963654,121.096024 502.963654,129.791428 
	C502.963654,138.595917 502.963654,147.400421 502.963654,156.634125 
	C498.937561,156.634125 495.250488,156.634125 491.234924,156.634125 
	C491.234924,132.626144 491.234924,108.745903 491.234924,84.153389 
	C494.973175,84.153389 498.627106,83.788643 502.146515,84.318085 
	C503.738342,84.557541 505.452515,86.317139 506.448273,87.824898 
	C516.346741,102.812431 526.104126,117.893181 535.908936,132.942642 
	C536.899536,134.463135 537.939758,135.951248 539.723145,138.586670 
	C539.723145,119.917664 539.723145,102.472000 539.723145,84.579048 
	C544.008728,84.579048 547.699524,84.579048 551.760864,84.579048 
	C551.760864,108.534012 551.760864,132.407425 551.760864,157.025986 
	C547.785217,157.025986 543.851746,157.183990 539.946716,156.920609 
	C538.903076,156.850204 537.688293,155.673279 536.997742,154.691010 
	C534.895752,151.701111 533.011475,148.558151 530.837158,145.177704 
z"/>
<path fill="#A999D6" opacity="1.000000" stroke="none" 
	d="
M687.841980,105.102341 
	C694.041077,121.977470 700.126465,138.479095 706.605286,156.047394 
	C701.555359,156.047394 697.316711,156.330978 693.161316,155.867783 
	C691.975403,155.735596 690.607056,153.596451 690.044312,152.105164 
	C686.181946,141.870148 686.243713,141.846771 675.217041,141.846848 
	C670.220032,141.846878 665.214722,142.020248 660.229248,141.780655 
	C657.368835,141.643188 656.156433,142.764374 655.225952,145.345810 
	C651.130554,156.707306 651.056091,156.683594 638.979370,156.036636 
	C638.496338,156.010757 638.022095,155.820892 636.720215,155.512115 
	C638.938538,149.229752 641.050598,143.045471 643.301758,136.912262 
	C649.145020,120.992485 655.141479,105.128059 660.847595,89.159645 
	C661.923340,86.149162 663.285950,85.044083 666.510559,85.035645 
	C680.157959,84.999893 680.165405,84.892357 685.155151,97.703819 
	C686.060059,100.027130 686.872986,102.386246 687.841980,105.102341 
M676.301880,129.094177 
	C677.849976,128.963623 679.398132,128.833069 681.762207,128.633713 
	C678.294312,118.758987 675.094360,109.647339 671.461853,99.303894 
	C667.755798,109.911217 664.501160,119.226494 661.053406,129.094498 
	C666.384460,129.094498 670.866333,129.094498 676.301880,129.094177 
z"/>
<path fill="#A999D6" opacity="1.000000" stroke="none" 
	d="
M920.404053,131.723511 
	C924.024353,133.053238 927.287292,134.246414 930.919434,135.574600 
	C926.247559,146.783051 918.311951,153.755295 906.747803,156.072769 
	C892.079956,159.012207 878.623230,156.504028 868.951050,144.149719 
	C859.785339,132.442352 858.804565,118.996841 864.167603,105.442841 
	C869.041931,93.124130 878.662476,86.502151 891.891113,84.875282 
	C907.266418,82.984428 919.751404,87.430527 928.401367,100.744514 
	C931.326599,105.246918 930.981384,106.015373 926.016907,107.783783 
	C923.222534,108.779160 920.415161,109.737953 917.303040,110.821373 
	C913.106506,102.094513 906.227600,97.728882 896.580688,98.002960 
	C887.139893,98.271187 879.640259,104.056335 877.064392,113.050415 
	C873.958984,123.893333 877.405334,134.895706 885.554932,140.156647 
	C893.111572,145.034790 904.936584,144.362808 911.726440,138.445572 
	C913.440918,136.951370 914.426392,134.634857 916.097778,133.071320 
	C917.046570,132.183655 918.706848,132.056549 920.404053,131.723511 
z"/>
<path fill="#A999D6" opacity="1.000000" stroke="none" 
	d="
M763.850708,125.277496 
	C771.072998,137.792007 765.988159,151.198975 752.369141,155.462509 
	C743.211243,158.329453 733.970032,157.848892 725.078613,153.979141 
	C719.512329,151.556564 715.534912,147.487274 713.000061,141.928879 
	C711.369324,138.352936 711.468994,135.939407 716.100037,135.268433 
	C719.370605,134.794571 722.586853,133.945526 726.222107,133.180954 
	C726.843750,134.603455 727.434937,136.082169 728.124817,137.513321 
	C731.401306,144.311005 741.412354,147.363922 747.886780,143.560837 
	C753.095032,140.501495 753.497498,133.617874 748.371887,130.354996 
	C745.614868,128.599945 742.348572,127.607521 739.249390,126.436676 
	C735.210083,124.910667 731.053955,123.686119 727.044922,122.088974 
	C717.895691,118.444046 713.932556,113.042046 714.004944,104.660332 
	C714.080383,95.914276 718.486572,89.515884 727.530273,86.336212 
	C738.884399,82.344223 749.969177,83.254021 759.512512,90.985107 
	C762.868225,93.703659 764.837708,98.133369 768.018250,102.592117 
	C762.667847,103.971321 758.877075,105.134048 755.001465,105.811577 
	C754.081055,105.972473 752.468994,104.752541 751.868835,103.751724 
	C748.019897,97.333458 741.209900,94.474930 734.399597,97.516533 
	C732.104858,98.541389 729.795288,101.565628 729.347839,104.015030 
	C729.022034,105.798515 731.270813,109.105064 733.195129,110.042313 
	C738.237915,112.498512 743.937439,113.603561 748.987915,116.047531 
	C754.108582,118.525436 758.765503,121.961716 763.850708,125.277496 
z"/>
<path fill="#AC9DD8" opacity="1.000000" stroke="none" 
	d="
M185.022461,125.981293 
	C183.444611,128.281418 181.864563,130.580032 180.289261,132.881912 
	C171.155975,146.227615 165.909744,160.710266 167.930603,177.115433 
	C168.346741,180.493454 169.571991,183.875626 170.994324,186.996078 
	C172.363785,190.000549 171.486908,192.229126 168.917206,193.003357 
	C167.721344,193.363663 164.955048,191.574615 164.284042,190.121170 
	C159.629868,180.039825 160.946960,169.669022 163.887466,159.473343 
	C165.524796,153.796204 167.944016,148.344559 170.243530,142.166138 
	C164.355408,141.459473 158.851517,140.721146 153.325211,140.240143 
	C152.679382,140.183929 151.909927,141.548065 150.933167,142.615936 
	C150.490768,142.962921 150.313004,142.947662 150.135239,142.932404 
	C148.698090,142.293060 147.126389,140.900894 145.844452,141.130005 
	C131.904510,143.621521 118.540817,147.253662 109.762589,159.918488 
	C108.926788,161.124344 105.897743,160.809998 103.886909,161.201401 
	C103.945709,159.331635 103.257225,156.885376 104.183434,155.684769 
	C110.654655,147.296295 119.669891,142.708786 129.702026,140.148285 
	C135.613525,138.639511 141.702377,137.825623 148.360367,136.577560 
	C145.962540,130.541626 145.346771,124.030144 139.508469,119.932457 
	C138.566452,119.271286 138.884476,117.024750 138.037964,115.984886 
	C130.079773,106.208969 121.438911,97.275963 108.511063,94.258064 
	C106.909973,93.884300 104.887062,94.472710 103.624290,93.696548 
	C101.821114,92.588226 99.459549,90.751678 99.265968,89.011505 
	C98.894867,85.675461 102.079582,85.809921 104.342224,86.160767 
	C113.553535,87.589012 121.253128,92.216789 127.793419,98.555229 
	C132.782303,103.390160 137.125305,108.891548 141.932434,114.295189 
	C145.094498,109.465988 152.657715,106.830818 151.974838,98.408302 
	C152.908447,97.448479 155.150131,96.150307 155.829422,94.283600 
	C160.554596,81.298470 163.896866,68.219360 157.628250,54.591187 
	C156.948669,53.113785 158.824814,50.460815 159.515488,48.353127 
	C161.079987,49.497025 163.385788,50.303490 164.085617,51.840973 
	C167.901413,60.223892 167.711929,69.038864 165.357452,77.712883 
	C163.418411,84.856453 160.780426,91.810310 158.135025,99.806969 
	C163.820969,100.224838 169.347122,100.740738 174.883224,100.890854 
	C175.532867,100.908463 176.237122,98.912285 177.164062,97.434288 
	C177.412064,97.018921 177.881454,97.059700 177.881454,97.059700 
	C177.870529,99.569969 178.972702,100.645065 181.598160,100.335571 
	C195.905502,98.649025 208.958176,94.436996 217.888733,82.143204 
	C219.771820,79.550980 221.724640,78.220673 224.435150,80.448982 
	C227.335312,82.833191 225.060608,85.039673 223.510162,86.822075 
	C215.356720,96.195366 204.446152,100.436653 192.671158,102.861122 
	C188.954391,103.626396 185.137985,103.907623 180.093704,104.580177 
	C181.327286,108.302094 182.004578,111.998436 183.697037,115.149536 
	C189.310989,125.601883 196.122116,135.318161 206.617615,141.327499 
	C211.964081,144.388687 218.141998,146.146240 224.119431,147.893036 
	C227.020859,148.740921 229.453247,149.415756 228.975922,152.829773 
	C228.407455,156.895630 225.381470,155.804626 222.765594,155.245209 
	C208.895416,152.278976 199.418884,143.117554 190.885818,132.629929 
	C189.131683,130.473999 187.404083,128.296478 185.246155,125.698166 
	C183.218384,120.955917 181.190674,116.746758 180.103882,112.307251 
	C178.718430,106.647598 176.858597,102.405594 169.789490,103.711082 
	C168.265976,103.992439 166.387634,103.540199 164.942764,102.855782 
	C158.382217,99.748146 155.288376,103.239967 151.004776,107.985611 
	C144.912354,114.735176 143.506317,120.185333 147.598511,128.753021 
	C150.463409,134.751129 152.282990,139.183182 159.810959,138.198303 
	C161.840866,137.932739 164.168793,138.556976 166.119476,139.358185 
	C170.396408,141.114914 172.686050,139.284576 175.221390,135.938232 
	C178.010391,132.257080 181.716125,129.270477 185.022461,125.981293 
z"/>
<path fill="#AA9BD7" opacity="1.000000" stroke="none" 
	d="
M445.953186,132.115448 
	C445.953125,136.882889 445.953125,141.169067 445.953125,145.964478 
	C455.424652,145.964478 464.341614,145.964478 473.650208,145.964478 
	C473.650208,149.710419 473.650208,152.947266 473.650208,156.630753 
	C460.540405,156.630753 447.320404,156.630753 433.630981,156.630753 
	C433.630981,132.742172 433.630981,108.743309 433.630981,84.426590 
	C446.985687,84.426590 460.203583,84.426590 473.738098,84.426590 
	C473.738098,87.928101 473.738098,91.160843 473.738098,94.920059 
	C464.652313,94.920059 455.736877,94.920059 446.390717,94.920059 
	C446.390717,101.784027 446.390717,108.135742 446.390717,115.065559 
	C454.434357,115.065559 462.340698,115.065559 470.599640,115.065559 
	C470.599640,118.851921 470.599640,122.079254 470.599640,125.865341 
	C462.632416,125.865341 454.723907,125.865341 446.255127,125.865341 
	C446.136536,128.131897 446.044891,129.883026 445.953186,132.115448 
z"/>
<path fill="#A999D6" opacity="1.000000" stroke="none" 
	d="
M319.006592,157.066513 
	C314.212494,157.066574 309.916687,157.066574 305.290009,157.066574 
	C305.290009,132.664413 305.290009,108.766434 305.290009,84.493042 
	C318.618805,84.493042 331.843933,84.493042 345.445038,84.493042 
	C345.445038,87.815468 345.445038,91.043030 345.445038,95.086151 
	C337.956757,95.086151 330.518066,95.376503 323.115631,94.983437 
	C318.232208,94.724136 316.585175,96.342308 317.004517,101.162689 
	C317.389099,105.583382 317.086151,110.063873 317.086151,115.091515 
	C325.578156,115.091515 333.486603,115.091515 341.738464,115.091515 
	C341.738464,118.899467 341.738464,122.125069 341.738464,126.066719 
	C335.188416,126.066719 328.740143,126.300415 322.318939,125.984261 
	C318.062866,125.774712 316.756653,127.350151 317.018097,131.430374 
	C317.313751,136.044708 317.086273,140.692566 317.086273,145.983231 
	C326.748444,145.983231 335.966125,145.983231 345.492676,145.983231 
	C345.492676,149.878555 345.492676,153.112228 345.492676,157.066452 
	C336.704651,157.066452 328.104767,157.066452 319.006592,157.066513 
z"/>
<path fill="#A999D6" opacity="1.000000" stroke="none" 
	d="
M407.228333,121.295059 
	C403.221588,132.103683 399.196228,142.492203 395.567413,153.017441 
	C394.418732,156.349136 392.701721,157.492004 389.385742,157.111404 
	C387.413300,156.885025 385.327423,157.374969 383.418396,156.961548 
	C382.091675,156.674255 380.292664,155.654083 379.872101,154.526047 
	C371.336243,131.632767 362.968109,108.676949 354.583374,85.727448 
	C354.482513,85.451370 354.603516,85.094238 354.655914,84.135605 
	C358.037689,84.135605 361.528687,83.745934 364.852295,84.322067 
	C366.235565,84.561852 367.797180,86.667984 368.367615,88.252983 
	C373.996002,103.891975 379.424377,119.602852 384.935699,135.284119 
	C385.582001,137.123032 386.386597,138.906326 387.496490,141.652283 
	C389.920380,134.891968 392.023468,129.137024 394.048523,123.354752 
	C397.894287,112.373528 401.972260,101.461700 405.386230,90.346733 
	C406.866486,85.527534 409.064636,83.308525 414.134766,84.073288 
	C416.068726,84.365005 418.083527,84.120735 420.889893,84.120735 
	C416.241028,96.770477 411.802032,108.849159 407.228333,121.295059 
z"/>
<path fill="#A898D6" opacity="1.000000" stroke="none" 
	d="
M790.213806,152.697052 
	C790.210327,134.454956 790.210327,116.681442 790.210327,98.314682 
	C784.563782,98.314682 779.324402,98.314682 773.275024,98.314682 
	C773.275024,94.481529 773.058289,91.207199 773.400513,87.992393 
	C773.510376,86.960594 775.087402,85.271408 776.008850,85.260948 
	C791.101379,85.089645 806.196533,85.139381 821.629883,85.139381 
	C821.629883,89.519005 821.629883,93.414322 821.629883,97.883057 
	C816.341431,97.883057 811.111816,97.883057 805.192749,97.883057 
	C805.192749,117.431702 805.192749,136.432037 805.192749,156.053818 
	C800.581726,156.053818 796.632019,156.228973 792.720093,155.922256 
	C791.819275,155.851639 791.048096,154.128372 790.213806,152.697052 
z"/>
<path fill="#A999D6" opacity="1.000000" stroke="none" 
	d="
M583.072510,153.740997 
	C583.068909,134.137939 583.068909,115.008667 583.068909,95.331970 
	C577.115234,95.331970 571.532288,95.331970 565.505005,95.331970 
	C565.505005,91.441498 565.505005,88.094521 565.505005,84.120735 
	C572.752075,84.120735 579.863586,84.120735 586.975098,84.120735 
	C593.802856,84.120743 600.630554,84.116180 607.458313,84.122086 
	C613.801819,84.127571 613.815002,84.132698 613.717773,90.470619 
	C613.697815,91.771400 613.538452,93.070038 613.399048,94.974442 
	C607.656433,94.974442 602.093689,94.974442 595.924072,94.974442 
	C595.924072,115.796532 595.924072,136.010529 595.924072,157.017853 
	C591.918335,157.017853 588.493042,157.181915 585.106995,156.890366 
	C584.358765,156.825943 583.749390,155.149155 583.072510,153.740997 
z"/>
<path fill="#A999D6" opacity="1.000000" stroke="none" 
	d="
M847.917236,152.738266 
	C847.076660,154.157684 846.297302,155.854523 845.392639,155.924194 
	C841.469299,156.226395 837.509338,156.053757 833.289124,156.053757 
	C833.289124,132.260696 833.289124,109.042480 833.289124,85.467979 
	C838.031433,85.467979 842.593018,85.467979 847.920776,85.467979 
	C847.920776,107.798431 847.920776,130.032669 847.917236,152.738266 
z"/>
<path fill="#AD9FD8" opacity="1.000000" stroke="none" 
	d="
M86.001556,90.861732 
	C87.758324,90.586143 89.515091,90.310555 91.894714,89.937263 
	C89.373039,94.918892 87.161369,99.288101 85.105797,103.348946 
	C85.314651,103.654442 84.734772,102.806252 83.561981,101.090813 
	C73.865875,118.252419 75.626610,135.195724 81.405365,153.414658 
	C71.897240,141.325043 67.519981,107.031204 84.945320,91.074875 
	C85.666138,90.927986 85.833847,90.894859 86.001556,90.861732 
z"/>
<path fill="#AD9FD8" opacity="1.000000" stroke="none" 
	d="
M176.439178,204.937073 
	C175.823349,202.951630 175.207520,200.966202 174.282669,197.984497 
	C184.403961,199.122192 194.364380,201.656754 204.300369,197.669418 
	C214.069107,193.749222 222.316498,187.953613 229.951874,180.286469 
	C230.670776,180.500671 230.877167,180.786774 231.083557,181.072876 
	C219.787994,195.782700 205.646622,205.429810 186.457687,205.852020 
	C183.523315,205.916580 180.572510,205.234085 177.106201,204.887695 
	C176.583084,204.878265 176.439178,204.937073 176.439178,204.937073 
z"/>
<path fill="#AD9FD8" opacity="1.000000" stroke="none" 
	d="
M151.040833,209.323151 
	C134.343979,209.022827 119.741455,203.329697 108.199120,191.253128 
	C104.192123,187.060699 101.369591,181.509766 98.944817,176.154266 
	C98.095261,174.277893 100.059471,171.127518 100.738800,168.558914 
	C101.276993,168.479202 101.815178,168.399475 102.353363,168.319763 
	C103.808609,171.963989 105.263855,175.608200 106.652992,179.690277 
	C106.724564,180.409866 106.862244,180.691605 106.999924,180.973328 
	C116.686554,197.473251 131.876328,205.201859 150.563293,208.378021 
	C151.007202,208.920334 151.024017,209.121750 151.040833,209.323151 
z"/>
<path fill="#AC9DD8" opacity="1.000000" stroke="none" 
	d="
M137.902084,41.570484 
	C122.251465,42.063221 110.021812,49.487297 99.541908,60.477551 
	C98.985275,61.061298 98.279617,61.502941 97.030838,62.087105 
	C96.220245,62.136009 96.022156,62.108536 95.824059,62.081062 
	C105.040749,49.581116 116.542244,40.048740 132.019287,36.893456 
	C137.827103,35.709431 144.113708,36.873970 150.549744,37.303429 
	C151.587860,38.485798 152.258286,39.332497 152.928711,40.179195 
	C154.559860,42.712540 153.611908,43.844597 150.878510,43.534832 
	C147.842270,43.190754 144.840988,42.538227 141.242157,41.768364 
	C139.740585,41.534649 138.821335,41.552567 137.902084,41.570484 
z"/>
<path fill="#AC9DD8" opacity="1.000000" stroke="none" 
	d="
M221.103149,61.176418 
	C213.856003,46.445328 200.890884,39.413250 185.934509,35.069630 
	C184.982147,34.793045 184.002472,34.611702 183.039673,34.369488 
	C182.243240,34.169128 181.452972,33.944294 180.692963,32.601692 
	C182.710526,32.742615 184.768753,32.674343 186.739243,33.057438 
	C203.001846,36.219162 216.682892,43.614567 225.981979,57.769260 
	C228.979828,62.332436 230.774933,67.293388 226.393097,73.650665 
	C224.612946,69.816566 223.114227,66.588623 221.318222,62.863167 
	C221.048340,61.969246 221.075745,61.572830 221.103149,61.176418 
z"/>
<path fill="#AC9DD8" opacity="1.000000" stroke="none" 
	d="
M243.953033,140.343658 
	C246.339828,134.124222 249.433990,128.071335 250.946960,121.646126 
	C253.195282,112.098099 250.722733,102.621872 248.968536,93.063301 
	C249.651321,92.872635 249.836319,92.900177 250.021317,92.927719 
	C256.341705,108.483528 257.645081,124.215271 250.966797,139.950348 
	C249.377151,143.695755 246.479446,146.885986 243.816803,150.664886 
	C243.450180,150.998215 242.982986,151.011520 242.982986,151.011520 
	C241.077301,151.011520 239.171600,151.011520 235.989258,151.011520 
	C238.462219,147.591599 240.224152,145.154984 242.315201,142.263916 
	C243.080551,141.320877 243.516785,140.832275 243.953033,140.343658 
z"/>
<path fill="#C9BFE5" opacity="1.000000" stroke="none" 
	d="
M242.943817,151.401154 
	C242.982986,151.011520 243.450180,150.998215 243.682510,150.977051 
	C243.671997,162.462067 238.305267,171.859879 231.372986,180.902740 
	C230.877167,180.786774 230.670776,180.500671 230.223709,180.098297 
	C236.527206,171.610275 241.082779,162.327026 242.943817,151.401154 
z"/>
<path fill="#C9BFE5" opacity="1.000000" stroke="none" 
	d="
M151.365677,209.551331 
	C151.024017,209.121750 151.007202,208.920334 150.966797,208.417297 
	C158.290497,207.664276 165.637772,207.212891 173.414261,206.735138 
	C166.306091,209.954987 159.089569,210.409546 151.365677,209.551331 
z"/>
<path fill="#C9BFE5" opacity="1.000000" stroke="none" 
	d="
M214.310547,113.364998 
	C217.003662,114.198654 219.292114,114.912537 221.580566,115.626411 
	C221.515579,115.747772 221.450592,115.869125 221.385605,115.990479 
	C214.223984,115.652214 207.062378,115.313950 199.900772,114.975685 
	C199.842300,114.749573 199.783829,114.523453 199.725342,114.297333 
	C204.452194,113.946625 209.179047,113.595917 214.310547,113.364998 
z"/>
<path fill="#C9BFE5" opacity="1.000000" stroke="none" 
	d="
M220.663269,61.138035 
	C221.075745,61.572830 221.048340,61.969246 221.021027,62.664917 
	C214.667023,62.663200 208.312912,62.362228 202.329468,62.078815 
	C207.756790,59.267601 213.974762,60.010216 220.663269,61.138035 
z"/>
<path fill="#C9BFE5" opacity="1.000000" stroke="none" 
	d="
M177.929230,96.598480 
	C177.881454,97.059700 177.412064,97.018921 177.176453,97.006531 
	C174.566711,91.522293 177.028137,86.634331 178.949509,81.661232 
	C178.625336,86.486580 178.301163,91.311920 177.929230,96.598480 
z"/>
<path fill="#C9BFE5" opacity="1.000000" stroke="none" 
	d="
M150.089264,143.400391 
	C150.313004,142.947662 150.490768,142.962921 150.936798,143.001495 
	C151.205078,147.377136 151.205078,151.729416 151.205078,156.081711 
	C150.817810,156.071548 150.430542,156.061386 150.043274,156.051224 
	C150.043274,151.990280 150.043274,147.929337 150.089264,143.400391 
z"/>
<path fill="#C9BFE5" opacity="1.000000" stroke="none" 
	d="
M130.965607,68.630005 
	C131.409668,64.025421 131.856140,59.852722 132.302628,55.680019 
	C132.792404,55.735390 133.282181,55.790756 133.771957,55.846127 
	C133.039474,61.194317 132.306992,66.542511 131.422485,73.000656 
	C131.192139,71.004219 131.080078,70.033051 130.965607,68.630005 
z"/>
<path fill="#FEFEFF" opacity="1.000000" stroke="none" 
	d="
M89.342110,167.114304 
	C91.635590,168.298508 93.919899,169.805481 96.204208,171.312469 
	C95.731400,171.894714 95.258591,172.476974 94.785782,173.059235 
	C92.968163,171.185181 91.150543,169.311142 89.342110,167.114304 
z"/>
<path fill="#FEFEFF" opacity="1.000000" stroke="none" 
	d="
M144.127472,167.741776 
	C142.860260,169.496445 141.593048,171.251129 140.325836,173.005814 
	C139.858871,172.617294 139.391907,172.228790 138.924942,171.840286 
	C140.425262,170.248383 141.925568,168.656479 143.778870,167.219803 
	C144.131836,167.375031 144.127472,167.741776 144.127472,167.741776 
z"/>
<path fill="#FEFEFF" opacity="1.000000" stroke="none" 
	d="
M154.641663,34.278290 
	C156.589310,33.923298 158.234695,33.715603 159.880096,33.507908 
	C159.965836,33.957481 160.051575,34.407059 160.137314,34.856636 
	C158.067108,35.116795 155.997025,35.378052 153.924667,35.619705 
	C153.906189,35.621864 153.788147,35.328300 153.835312,35.229454 
	C153.970612,34.945877 154.167023,34.691456 154.641663,34.278290 
z"/>
<path fill="#FEFEFF" opacity="1.000000" stroke="none" 
	d="
M137.929001,41.954033 
	C138.821335,41.552567 139.740585,41.534649 140.828918,41.762772 
	C140.405884,42.881821 139.813766,43.754822 139.221664,44.627831 
	C138.799744,43.864410 138.377823,43.100994 137.929001,41.954033 
z"/>
<path fill="#C9BFE5" opacity="1.000000" stroke="none" 
	d="
M243.841827,139.986755 
	C243.516785,140.832275 243.080551,141.320877 242.426605,141.930145 
	C241.861710,139.908737 241.514526,137.766663 241.167343,135.624588 
	C241.415833,135.549149 241.664307,135.473709 241.912796,135.398254 
	C242.518753,136.808792 243.124695,138.219330 243.841827,139.986755 
z"/>
<path fill="#C9BFE5" opacity="1.000000" stroke="none" 
	d="
M235.819336,127.198006 
	C234.461731,126.063370 233.104111,124.928734 231.746506,123.794098 
	C232.110214,123.390938 232.473938,122.987778 232.837646,122.584625 
	C233.889984,123.797691 234.942337,125.010757 235.989471,126.624649 
	C235.984253,127.025482 235.819336,127.198006 235.819336,127.198006 
z"/>
<path fill="#FEFEFF" opacity="1.000000" stroke="none" 
	d="
M244.359070,84.335602 
	C245.146103,84.847046 246.154633,85.577568 247.163162,86.308090 
	C246.732422,86.736473 246.301682,87.164848 245.870941,87.593231 
	C245.440826,86.580383 245.010696,85.567535 244.359070,84.335602 
z"/>
<path fill="#FEFEFF" opacity="1.000000" stroke="none" 
	d="
M95.538483,62.238148 
	C96.022156,62.108536 96.220245,62.136009 96.711823,62.226875 
	C96.236122,63.503918 95.466934,64.717560 94.348907,65.965637 
	C94.000061,66.000069 93.991066,65.991592 93.991066,65.991592 
	C94.411682,64.792809 94.832291,63.594021 95.538483,62.238148 
z"/>
<path fill="#FEFEFF" opacity="1.000000" stroke="none" 
	d="
M110.708847,179.268036 
	C111.857437,179.272385 112.699120,179.408951 113.540810,179.545532 
	C113.309532,180.005066 113.078255,180.464615 112.846985,180.924149 
	C112.031967,180.416183 111.216957,179.908218 110.708847,179.268036 
z"/>
<path fill="#C9BFE5" opacity="1.000000" stroke="none" 
	d="
M136.887650,49.177086 
	C136.244629,50.672054 135.601624,52.167023 134.958603,53.661995 
	C134.596603,53.502296 134.234619,53.342598 133.872620,53.182903 
	C134.412445,51.946262 134.952271,50.709621 135.968567,49.288277 
	C136.445023,49.103573 136.887650,49.177086 136.887650,49.177086 
z"/>
<path fill="#FEFEFF" opacity="1.000000" stroke="none" 
	d="
M192.052078,192.576920 
	C191.912949,191.510559 192.072906,190.434280 192.232864,189.358017 
	C192.726089,189.485458 193.219299,189.612915 193.712524,189.740372 
	C193.258743,190.682587 192.804947,191.624802 192.052078,192.576920 
z"/>
<path fill="#FEFEFF" opacity="1.000000" stroke="none" 
	d="
M86.001175,90.484497 
	C85.833847,90.894859 85.666138,90.927986 85.246277,90.913506 
	C84.736984,89.437492 84.479851,88.009087 84.222725,86.580673 
	C84.660568,86.517250 85.098412,86.453819 85.536255,86.390396 
	C85.691101,87.629349 85.845955,88.868301 86.001175,90.484497 
z"/>
<path fill="#FEFEFF" opacity="1.000000" stroke="none" 
	d="
M195.995728,182.996094 
	C195.701324,181.867599 195.406937,180.739105 195.112549,179.610611 
	C195.583328,179.554077 196.054108,179.497543 196.524887,179.441010 
	C196.524887,180.483398 196.524887,181.525803 196.262451,182.784088 
	C196.000000,183.000000 195.995728,182.996094 195.995728,182.996094 
z"/>
<path fill="#C9BFE5" opacity="1.000000" stroke="none" 
	d="
M240.968079,78.737167 
	C240.172791,78.002205 239.694458,77.302422 239.216125,76.602631 
	C239.613647,76.430916 240.011169,76.259193 240.408691,76.087479 
	C240.700790,76.982430 240.992905,77.877388 240.968079,78.737167 
z"/>
<path fill="#FEFEFF" opacity="1.000000" stroke="none" 
	d="
M138.350494,91.073883 
	C139.092621,90.984055 139.818375,91.198242 140.544113,91.412430 
	C140.402847,91.802605 140.261597,92.192787 140.120346,92.582970 
	C139.524933,92.181274 138.929520,91.779587 138.350494,91.073883 
z"/>
<path fill="#FEFEFF" opacity="1.000000" stroke="none" 
	d="
M94.004517,66.004517 
	C93.689667,67.033951 93.370377,68.058952 93.051079,69.083946 
	C92.553566,68.865120 92.056061,68.646286 91.558548,68.427460 
	C92.156174,67.646385 92.753792,66.865318 93.671242,66.037918 
	C93.991066,65.991592 94.000061,66.000069 94.004517,66.004517 
z"/>
<path fill="#C9BFE5" opacity="1.000000" stroke="none" 
	d="
M149.700241,158.801300 
	C149.583435,159.881378 149.282166,160.718079 148.980911,161.554794 
	C148.645248,161.402725 148.309601,161.250671 147.973938,161.098602 
	C148.487885,160.251709 149.001831,159.404831 149.700241,158.801300 
z"/>
<path fill="#FEFEFF" opacity="1.000000" stroke="none" 
	d="
M111.690857,126.473465 
	C112.448006,126.467552 112.985268,126.673172 113.522537,126.878784 
	C113.387337,127.153839 113.252136,127.428886 113.116928,127.703934 
	C112.568283,127.364288 112.019630,127.024643 111.690857,126.473465 
z"/>
<path fill="#FEFEFF" opacity="1.000000" stroke="none" 
	d="
M196.002136,183.002136 
	C195.844223,183.858459 195.684189,184.712646 195.524155,185.566833 
	C195.159698,185.439590 194.795242,185.312332 194.430786,185.185089 
	C194.731186,184.489761 195.031601,183.794449 195.663864,183.047607 
	C195.995728,182.996094 196.000000,183.000000 196.002136,183.002136 
z"/>
<path fill="#FEFEFF" opacity="1.000000" stroke="none" 
	d="
M196.508102,166.334869 
	C195.963440,165.989578 195.636795,165.428848 195.310165,164.868134 
	C195.589493,164.740479 195.868835,164.612823 196.148163,164.485184 
	C196.340820,165.029938 196.533478,165.574692 196.508102,166.334869 
z"/>
<path fill="#FEFEFF" opacity="1.000000" stroke="none" 
	d="
M97.037704,118.340012 
	C97.638824,118.639694 97.963188,118.974037 98.287552,119.308380 
	C97.907310,119.481438 97.527061,119.654495 97.146805,119.827545 
	C97.018188,119.343254 96.889565,118.858971 97.037704,118.340012 
z"/>
<path fill="#FEFEFF" opacity="1.000000" stroke="none" 
	d="
M131.739227,78.763039 
	C132.264481,78.502182 132.837219,78.491661 133.403534,78.547020 
	C133.436340,78.550232 133.416840,79.088318 133.421677,79.377480 
	C132.876221,79.260918 132.330780,79.144356 131.739227,78.763039 
z"/>
<path fill="#FEFEFF" opacity="1.000000" stroke="none" 
	d="
M152.949341,39.819199 
	C152.258286,39.332497 151.587860,38.485798 150.973862,37.305462 
	C151.030289,36.971825 150.996552,37.003853 151.228180,36.983315 
	C151.627441,36.971085 151.795074,36.979393 151.962708,36.987698 
	C152.298462,37.811531 152.634216,38.635365 152.949341,39.819199 
z"/>
<path fill="#C9BFE5" opacity="1.000000" stroke="none" 
	d="
M239.882019,133.132294 
	C239.246796,132.333603 238.611557,131.534912 237.998566,130.352982 
	C238.020813,129.969742 238.168945,129.813278 238.168945,129.813278 
	C238.817749,130.601730 239.466537,131.390182 240.068771,132.582367 
	C240.022217,132.986084 239.882019,133.132294 239.882019,133.132294 
z"/>
<path fill="#C9BFE5" opacity="1.000000" stroke="none" 
	d="
M145.921677,165.916809 
	C146.223022,165.019394 146.524384,164.121994 146.825729,163.224579 
	C147.128372,163.348709 147.431030,163.472839 147.733673,163.596985 
	C147.362183,164.317474 146.990692,165.037979 146.303345,165.872437 
	C145.987488,165.986389 145.921677,165.916809 145.921677,165.916809 
z"/>
<path fill="#C9BFE5" opacity="1.000000" stroke="none" 
	d="
M198.624573,64.476067 
	C198.088516,64.315857 197.802109,64.036049 197.515686,63.756248 
	C198.072617,63.584385 198.629532,63.412521 199.186462,63.240662 
	C199.082382,63.612602 198.978287,63.984539 198.624573,64.476067 
z"/>
<path fill="#FEFEFF" opacity="1.000000" stroke="none" 
	d="
M137.043304,48.916840 
	C136.887650,49.177086 136.445023,49.103573 136.221649,49.082687 
	C136.611252,48.182251 137.224213,47.302704 137.837173,46.423157 
	C138.389282,46.921700 138.941406,47.420242 139.493515,47.918785 
	C138.728668,48.164719 137.963821,48.410656 137.043304,48.916840 
z"/>
<path fill="#FEFEFF" opacity="1.000000" stroke="none" 
	d="
M86.607330,162.533478 
	C87.058220,162.649750 87.334625,162.933655 87.589706,163.235580 
	C87.596207,163.243286 87.368431,163.448898 87.249908,163.562210 
	C86.976624,163.275970 86.703346,162.989716 86.607330,162.533478 
z"/>
<path fill="#C9BFE5" opacity="1.000000" stroke="none" 
	d="
M144.420410,167.745468 
	C144.127472,167.741776 144.131836,167.375031 144.135284,167.191833 
	C144.548233,166.659790 144.957718,166.310959 145.644440,165.939453 
	C145.921677,165.916809 145.987488,165.986389 146.021637,166.021515 
	C145.608322,166.620819 145.160843,167.184982 144.420410,167.745468 
z"/>
<path fill="#FEFEFF" opacity="1.000000" stroke="none" 
	d="
M83.855103,159.604523 
	C84.360588,159.427444 84.948311,159.478073 85.536041,159.528687 
	C85.456993,159.806778 85.377945,160.084885 85.298889,160.362976 
	C84.845039,160.186050 84.391182,160.009140 83.855103,159.604523 
z"/>
<path fill="#FEFEFF" opacity="1.000000" stroke="none" 
	d="
M183.044785,74.392502 
	C183.287430,74.790146 183.285782,75.185669 183.255493,75.578972 
	C183.254654,75.590027 182.948044,75.577538 182.783997,75.576035 
	C182.788162,75.180710 182.792313,74.785393 183.044785,74.392502 
z"/>
<path fill="#FEFEFF" opacity="1.000000" stroke="none" 
	d="
M185.045471,147.392029 
	C185.288101,147.789658 185.286407,148.185226 185.256088,148.578613 
	C185.255234,148.589676 184.948624,148.577164 184.784576,148.575653 
	C184.788773,148.180328 184.792953,147.785019 185.045471,147.392029 
z"/>
<path fill="#FEFEFF" opacity="1.000000" stroke="none" 
	d="
M190.392975,195.467041 
	C189.941879,195.350677 189.665329,195.066620 189.410110,194.764526 
	C189.403625,194.756805 189.631439,194.551117 189.749985,194.437759 
	C190.023422,194.724167 190.296844,195.010574 190.392975,195.467041 
z"/>
<path fill="#C9BFE5" opacity="1.000000" stroke="none" 
	d="
M192.595551,119.350967 
	C192.670319,118.883362 192.918289,118.596054 193.166275,118.308746 
	C193.343674,118.486717 193.521072,118.664688 193.698486,118.842651 
	C193.388580,119.072189 193.078690,119.301735 192.595551,119.350967 
z"/>
<path fill="#FEFEFF" opacity="1.000000" stroke="none" 
	d="
M182.045395,145.391785 
	C182.288193,145.789612 182.286514,146.185410 182.256226,146.579010 
	C182.255371,146.590042 181.948563,146.577545 181.784424,146.576004 
	C181.788589,146.180481 181.792755,145.784973 182.045395,145.391785 
z"/>
<path fill="#FEFEFF" opacity="1.000000" stroke="none" 
	d="
M131.532928,75.392609 
	C131.649323,74.941444 131.933411,74.664848 132.235565,74.409592 
	C132.243286,74.403076 132.449005,74.630959 132.562393,74.749512 
	C132.275925,75.022995 131.989456,75.296478 131.532928,75.392609 
z"/>
<path fill="#FEFEFF" opacity="1.000000" stroke="none" 
	d="
M88.392227,77.466827 
	C87.941254,77.350502 87.664757,77.066475 87.409622,76.764412 
	C87.403084,76.756676 87.630920,76.550972 87.749443,76.437592 
	C88.022797,76.723984 88.296143,77.010376 88.392227,77.466827 
z"/>
<path fill="#C9BFE5" opacity="1.000000" stroke="none" 
	d="
M242.927338,80.258865 
	C243.246323,80.662918 243.303284,81.034492 243.360229,81.406059 
	C243.096970,81.389648 242.833710,81.373238 242.570465,81.356834 
	C242.602066,80.980019 242.633667,80.603203 242.927338,80.258865 
z"/>
<path fill="#FEFEFF" opacity="1.000000" stroke="none" 
	d="
M85.954308,83.608078 
	C85.711502,83.210190 85.713188,82.814308 85.743546,82.420639 
	C85.744408,82.409531 86.051247,82.422028 86.215416,82.423515 
	C86.211212,82.819138 86.207008,83.214760 85.954308,83.608078 
z"/>
<path fill="#FEFEFF" opacity="1.000000" stroke="none" 
	d="
M185.608200,72.533646 
	C186.058472,72.649818 186.334503,72.933395 186.589218,73.234978 
	C186.595749,73.242714 186.368317,73.448059 186.249985,73.561249 
	C185.977051,73.275299 185.704117,72.989349 185.608200,72.533646 
z"/>
<path fill="#FEFEFF" opacity="1.000000" stroke="none" 
	d="
M249.975708,92.636604 
	C249.836319,92.900177 249.651321,92.872635 249.189331,92.796707 
	C248.526154,92.296333 248.139969,91.844360 247.753799,91.392380 
	C247.868271,91.250290 247.982742,91.108208 248.097229,90.966118 
	C248.708176,91.425911 249.319138,91.885696 249.975708,92.636604 
z"/>
<path fill="#FEFEFF" opacity="1.000000" stroke="none" 
	d="
M146.004501,94.994171 
	C146.514145,95.299103 147.023788,95.604027 147.533432,95.908958 
	C147.351196,96.118996 147.168976,96.329033 146.986740,96.539070 
	C146.680191,96.217163 146.373627,95.895248 146.033539,95.286667 
	C146.000000,95.000000 146.004501,94.994171 146.004501,94.994171 
z"/>
<path fill="#FEFEFF" opacity="1.000000" stroke="none" 
	d="
M86.954704,107.607224 
	C86.712212,107.209846 86.713898,106.814468 86.744270,106.421310 
	C86.745132,106.410164 87.051613,106.422630 87.215584,106.424088 
	C87.211365,106.819237 87.207146,107.214386 86.954704,107.607224 
z"/>
<path fill="#FEFEFF" opacity="1.000000" stroke="none" 
	d="
M88.608093,109.533485 
	C89.058975,109.649773 89.335419,109.933739 89.590477,110.235771 
	C89.597031,110.243523 89.369202,110.449211 89.250687,110.562576 
	C88.977402,110.276230 88.704124,109.989883 88.608093,109.533485 
z"/>
<path fill="#FEFEFF" opacity="1.000000" stroke="none" 
	d="
M191.135681,154.700958 
	C190.945251,154.392471 190.971207,154.051880 190.997162,153.711304 
	C191.234421,153.783066 191.471695,153.854813 191.708984,153.926575 
	C191.590012,154.173996 191.471039,154.421432 191.135681,154.700958 
z"/>
<path fill="#FEFEFF" opacity="1.000000" stroke="none" 
	d="
M86.864319,79.298538 
	C87.054947,79.607368 87.028984,79.948265 87.003021,80.289154 
	C86.765526,80.217323 86.528030,80.145485 86.290527,80.073654 
	C86.409599,79.825966 86.528664,79.578278 86.864319,79.298538 
z"/>
<path fill="#FEFEFF" opacity="1.000000" stroke="none" 
	d="
M133.865891,81.844315 
	C134.250153,81.763596 134.483948,81.835709 134.717758,81.907822 
	C134.457611,82.171143 134.197449,82.434471 133.937302,82.697792 
	C133.863342,82.464241 133.789398,82.230698 133.865891,81.844315 
z"/>
<path fill="#FEFEFF" opacity="1.000000" stroke="none" 
	d="
M189.219147,69.607239 
	C188.791290,69.466682 188.530136,69.193085 188.291077,68.901382 
	C188.281509,68.889709 188.481644,68.706184 188.584091,68.602730 
	C188.852646,68.892151 189.121201,69.181580 189.219147,69.607239 
z"/>
<path fill="#FEFEFF" opacity="1.000000" stroke="none" 
	d="
M191.472626,67.499794 
	C191.399521,67.089912 191.480606,66.837181 191.561707,66.584457 
	C191.837982,66.867119 192.114273,67.149780 192.390564,67.432434 
	C192.135986,67.507271 191.881393,67.582108 191.472626,67.499794 
z"/>
<path fill="#FEFEFF" opacity="1.000000" stroke="none" 
	d="
M135.114426,122.294907 
	C135.405960,122.212227 135.792831,122.302811 135.876480,122.513680 
	C135.944427,122.685005 135.648666,123.000610 135.514191,123.252228 
	C135.369034,123.008202 135.223862,122.764175 135.114426,122.294907 
z"/>
<path fill="#FEFEFF" opacity="1.000000" stroke="none" 
	d="
M109.258713,125.645210 
	C109.431183,125.956665 109.390106,126.309113 109.349022,126.661560 
	C109.104301,126.573929 108.859581,126.486305 108.614868,126.398682 
	C108.758301,126.161194 108.901726,125.923698 109.258713,125.645210 
z"/>
<path fill="#FEFEFF" opacity="1.000000" stroke="none" 
	d="
M101.499954,122.527512 
	C101.089920,122.600647 100.837082,122.519516 100.584251,122.438393 
	C100.867012,122.161995 101.149773,121.885597 101.432541,121.609200 
	C101.507408,121.863884 101.582275,122.118576 101.499954,122.527512 
z"/>
<path fill="#FEFEFF" opacity="1.000000" stroke="none" 
	d="
M124.398491,126.722313 
	C124.558998,126.849388 124.582245,127.069160 124.605484,127.288933 
	C124.490730,127.130959 124.375977,126.972984 124.398491,126.722313 
z"/>
<path fill="#FEFEFF" opacity="1.000000" stroke="none" 
	d="
M91.258301,113.644066 
	C91.008194,113.629303 90.871834,113.495377 90.735474,113.361450 
	C90.947670,113.415939 91.159859,113.470421 91.258301,113.644066 
z"/>
<path fill="#C9BFE5" opacity="1.000000" stroke="none" 
	d="
M176.177078,205.003662 
	C176.439178,204.937073 176.583084,204.878265 176.656113,204.866455 
	C176.398956,205.125320 176.068756,205.395996 175.738571,205.666656 
	C175.797379,205.467865 175.856171,205.269058 176.177078,205.003662 
z"/>
<path fill="#FEFEFF" opacity="1.000000" stroke="none" 
	d="
M177.741272,144.355652 
	C177.991837,144.370422 178.128464,144.504623 178.265091,144.638794 
	C178.052505,144.584229 177.839920,144.529663 177.741272,144.355652 
z"/>
<path fill="#FEFEFF" opacity="1.000000" stroke="none" 
	d="
M130.243057,125.011200 
	C130.409805,124.900963 130.578079,124.955017 130.746353,125.009079 
	C130.579102,125.064560 130.411850,125.120033 130.243057,125.011200 
z"/>
<path fill="#FEFEFF" opacity="1.000000" stroke="none" 
	d="
M132.601898,124.277916 
	C132.441284,124.150772 132.418015,123.930878 132.394730,123.710976 
	C132.509567,123.869034 132.624390,124.027100 132.601898,124.277916 
z"/>
<path fill="#FEFEFF" opacity="1.000000" stroke="none" 
	d="
M127.971748,178.978439 
	C128.107742,178.550827 128.243744,178.123199 128.379730,177.695587 
	C128.394547,178.052399 128.409348,178.409195 128.211456,178.882996 
	C127.998772,179.000000 127.971748,178.978439 127.971748,178.978439 
z"/>
<path fill="#FEFEFF" opacity="1.000000" stroke="none" 
	d="
M180.601669,78.277687 
	C180.441223,78.150665 180.417984,77.930946 180.394760,77.711235 
	C180.509460,77.869156 180.624176,78.027077 180.601669,78.277687 
z"/>
<path fill="#C9BFE5" opacity="1.000000" stroke="none" 
	d="
M226.063354,118.926758 
	C226.491409,119.150803 226.919479,119.374832 227.347549,119.598869 
	C226.969666,119.568558 226.591782,119.538246 226.109161,119.249741 
	C226.004410,118.991554 226.063354,118.926758 226.063354,118.926758 
z"/>
<path fill="#FEFEFF" opacity="1.000000" stroke="none" 
	d="
M120.243156,180.011108 
	C120.409691,179.901001 120.577774,179.955017 120.745865,180.009018 
	C120.578812,180.064423 120.411766,180.119827 120.243156,180.011108 
z"/>
<path fill="#C9BFE5" opacity="1.000000" stroke="none" 
	d="
M225.972458,119.021500 
	C225.733246,118.907730 225.525986,118.764015 225.318710,118.620300 
	C225.520493,118.599747 225.722260,118.579201 225.993698,118.742706 
	C226.063354,118.926758 226.004410,118.991554 225.972458,119.021500 
z"/>
<path fill="#FEFEFF" opacity="1.000000" stroke="none" 
	d="
M137.467163,174.449432 
	C137.522964,174.416046 137.411346,174.482834 137.467163,174.449432 
z"/>
<path fill="#FEFEFF" opacity="1.000000" stroke="none" 
	d="
M128.009689,179.013351 
	C127.914841,179.052734 127.809059,179.078781 127.837509,179.041626 
	C127.971748,178.978439 127.998772,179.000000 128.009689,179.013351 
z"/>
<path fill="#FEFEFF" opacity="1.000000" stroke="none" 
	d="
M189.467239,120.449539 
	C189.523148,120.416054 189.411331,120.483017 189.467239,120.449539 
z"/>
<path fill="#FEFEFF" opacity="1.000000" stroke="none" 
	d="
M106.995529,180.712494 
	C106.862244,180.691605 106.724564,180.409866 106.780075,180.029175 
	C106.979225,180.104050 106.985176,180.277863 106.995529,180.712494 
z"/>
<path fill="#C9BFE5" opacity="1.000000" stroke="none" 
	d="
M236.929871,73.077751 
	C236.647476,72.902802 236.365097,72.727852 236.038269,72.278290 
	C235.993820,72.003670 236.047836,71.944489 236.047836,71.944489 
	C236.326431,72.120140 236.605011,72.295792 236.938614,72.740074 
	C236.993622,73.008705 236.929871,73.077751 236.929871,73.077751 
z"/>
<path fill="#C9BFE5" opacity="1.000000" stroke="none" 
	d="
M238.044861,73.948326 
	C238.232285,74.111473 238.419693,74.274620 238.607117,74.437775 
	C238.413132,74.441605 238.219147,74.445435 238.008057,74.228287 
	C237.990967,74.007317 238.044861,73.948326 238.044861,73.948326 
z"/>
<path fill="#AC9DD8" opacity="1.000000" stroke="none" 
	d="
M151.895599,36.791336 
	C151.795074,36.979393 151.627441,36.971085 151.210190,36.997963 
	C151.249878,36.887089 151.539169,36.741035 151.895599,36.791336 
z"/>
<path fill="#C9BFE5" opacity="1.000000" stroke="none" 
	d="
M195.404205,117.396744 
	C195.524414,117.315971 195.595245,117.614510 195.595245,117.614510 
	C195.595245,117.614510 195.283981,117.477524 195.404205,117.396744 
z"/>
<path fill="#FEFEFF" opacity="1.000000" stroke="none" 
	d="
M134.550751,84.467331 
	C134.584122,84.523094 134.517365,84.411568 134.550751,84.467331 
z"/>
<path fill="#C9BFE5" opacity="1.000000" stroke="none" 
	d="
M237.028046,72.976730 
	C237.335007,73.122192 237.607544,73.299629 237.962463,73.712692 
	C238.044861,73.948326 237.990967,74.007317 237.959595,74.036484 
	C237.645981,73.897781 237.363739,73.729919 237.005676,73.319901 
	C236.929871,73.077751 236.993622,73.008705 237.028046,72.976730 
z"/>
<path fill="#C9BFE5" opacity="1.000000" stroke="none" 
	d="
M236.070419,126.942932 
	C236.328674,127.056465 236.500778,127.252548 236.672867,127.448624 
	C236.463852,127.477409 236.254852,127.506195 235.932587,127.366493 
	C235.819336,127.198006 235.984253,127.025482 236.070419,126.942932 
z"/>
<path fill="#C9BFE5" opacity="1.000000" stroke="none" 
	d="
M197.413589,116.399567 
	C197.530670,116.324402 197.598618,116.607498 197.598618,116.607498 
	C197.598618,116.607498 197.296509,116.474724 197.413589,116.399567 
z"/>
<path fill="#C9BFE5" opacity="1.000000" stroke="none" 
	d="
M235.046722,70.945381 
	C235.321320,71.122559 235.595917,71.299736 235.959167,71.710701 
	C236.047836,71.944489 235.993820,72.003670 235.962982,72.032211 
	C235.651337,71.888321 235.370514,71.715897 235.041016,71.274147 
	C234.992310,71.004829 235.046722,70.945381 235.046722,70.945381 
z"/>
<path fill="#C9BFE5" opacity="1.000000" stroke="none" 
	d="
M234.962631,71.032089 
	C234.652359,70.882362 234.371750,70.705376 234.042801,70.266312 
	C233.994446,70.004234 234.022522,69.971893 234.022522,69.971893 
	C234.302048,70.141350 234.581573,70.310806 234.953918,70.712822 
	C235.046722,70.945381 234.992310,71.004829 234.962631,71.032089 
z"/>
<path fill="#C9BFE5" opacity="1.000000" stroke="none" 
	d="
M233.978180,70.018402 
	C233.815460,69.858589 233.668991,69.684624 233.522537,69.510658 
	C233.641449,69.554604 233.760376,69.598549 233.950897,69.807190 
	C234.022522,69.971893 233.994446,70.004234 233.978180,70.018402 
z"/>
<path fill="#FEFEFF" opacity="1.000000" stroke="none" 
	d="
M136.532837,85.550735 
	C136.476868,85.584229 136.588791,85.517250 136.532837,85.550735 
z"/>
<path fill="#FEFEFF" opacity="1.000000" stroke="none" 
	d="
M192.449371,157.532883 
	C192.415802,157.476868 192.482925,157.588898 192.449371,157.532883 
z"/>
<path fill="#C9BFE5" opacity="1.000000" stroke="none" 
	d="
M223.399094,117.395500 
	C223.518890,117.316261 223.591049,117.609177 223.591049,117.609177 
	C223.591049,117.609177 223.279297,117.474739 223.399094,117.395500 
z"/>
<path fill="#C9BFE5" opacity="1.000000" stroke="none" 
	d="
M231.632904,68.413025 
	C231.708405,68.506187 231.440063,68.554787 231.440063,68.554787 
	C231.440063,68.554787 231.557404,68.319870 231.632904,68.413025 
z"/>
<path fill="#FEFEFF" opacity="1.000000" stroke="none" 
	d="
M145.997086,95.002274 
	C145.873734,94.860260 145.753296,94.715965 145.632874,94.571663 
	C145.719498,94.620483 145.806137,94.669296 145.948639,94.856140 
	C146.004501,94.994171 146.000000,95.000000 145.997086,95.002274 
z"/>
<path fill="#C9BFE5" opacity="1.000000" stroke="none" 
	d="
M240.095856,132.916550 
	C240.342255,133.043091 240.515015,133.239182 240.687790,133.435257 
	C240.483276,133.455215 240.278778,133.475189 239.978149,133.313721 
	C239.882019,133.132294 240.022217,132.986084 240.095856,132.916550 
z"/>
<path fill="#C9BFE5" opacity="1.000000" stroke="none" 
	d="
M237.942871,130.044113 
	C237.696960,129.931656 237.529007,129.744827 237.361053,129.558014 
	C237.559067,129.534302 237.757080,129.510574 238.062012,129.650070 
	C238.168945,129.813278 238.020813,129.969742 237.942871,130.044113 
z"/>
<path fill="#FEFEFE" opacity="1.000000" stroke="none" 
	d="
M675.825073,129.094330 
	C670.866333,129.094498 666.384460,129.094498 661.053406,129.094498 
	C664.501160,119.226494 667.755798,109.911217 671.461853,99.303894 
	C675.094360,109.647339 678.294312,118.758987 681.762207,128.633713 
	C679.398132,128.833069 677.849976,128.963623 675.825073,129.094330 
z"/>
<path fill="#FEFEFE" opacity="1.000000" stroke="none" 
	d="
M185.010468,125.989563 
	C181.716125,129.270477 178.010391,132.257080 175.221390,135.938232 
	C172.686050,139.284576 170.396408,141.114914 166.119476,139.358185 
	C164.168793,138.556976 161.840866,137.932739 159.810959,138.198303 
	C152.282990,139.183182 150.463409,134.751129 147.598511,128.753021 
	C143.506317,120.185333 144.912354,114.735176 151.004776,107.985611 
	C155.288376,103.239967 158.382217,99.748146 164.942764,102.855782 
	C166.387634,103.540199 168.265976,103.992439 169.789490,103.711082 
	C176.858597,102.405594 178.718430,106.647598 180.103882,112.307251 
	C181.190674,116.746758 183.218384,120.955917 184.905182,125.644653 
	C184.982269,126.021896 184.998489,125.997841 185.010468,125.989563 
z"/>
</svg>